# xmcd
#
# Track frame offsets:
#	150
#	27666
#	48883
#	80721
#	97701
#	127312
#	142962
#	170170
#	185895
#	207381
#	233642
#	249721
#	264462
#	287123
#	307020
#	327969
#
# Disc length: 4543 seconds
#
# Revision: 0
# Processed by: cddbd v1.5.2PL0 Copyright (c) Steve Scherf et al.
# Submitted via: audiograbber 1.83.01
#
DISCID=f511bd10
DTITLE=Various Artist - Joni 75: A Joni Mitchell Birthday Celebration
DYEAR=2091
DGENRE=
TTITLE0=Los Lobos with La Marisoul, Xochi Flores and Cesar Castro - Dreamland
TTITLE1=Chaka Khan - Help Me
TTITLE2=Diana Krall - Amelia
TTITLE3=Rufus Wainwright - All I Want
TTITLE4=Glen Hansard - Coyote
TTITLE5=James Taylor - River
TTITLE6=Seal - Both Sides Now
TTITLE7=Graham Nash - Our House
TTITLE8=Kris Kristofferson and Brandi Carlile - A Case Of You
TTITLE9=Brandi Carlile - Down To You
TTITLE10=Rufus Wainwright - Blue
TTITLE11=Norah Jones - Court And Spark
TTITLE12=Los Lobos with La Marisoul, Xochi Flores and Cesar Castro - Nothing Can 
TTITLE12=Be Done
TTITLE13=Emmylou Harris - The Magdalene Laundries
TTITLE14=James Taylor - Woodstock
TTITLE15=La Marisoul, James Taylor, Chaka Khan and Brandi Carlile - Big Yellow Ta
TTITLE15=xi
EXTD=
EXTT0=
EXTT1=
EXTT2=
EXTT3=
EXTT4=
EXTT5=
EXTT6=
EXTT7=
EXTT8=
EXTT9=
EXTT10=
EXTT11=
EXTT12=
EXTT13=
EXTT14=
EXTT15=
PLAYORDER=
